<?xml version="1.0" encoding="UTF-8" standalone="no"?>
<!DOCTYPE svg PUBLIC "-//W3C//DTD SVG 1.1//EN"
 "http://www.w3.org/Graphics/SVG/1.1/DTD/svg11.dtd">
<!-- Generated by graphviz version 2.44.0 (0)
 -->
<!-- Pages: 1 -->
<svg width="796pt" height="374pt"
 viewBox="0.00 0.00 796.00 374.00" xmlns="http://www.w3.org/2000/svg" xmlns:xlink="http://www.w3.org/1999/xlink">
<g id="graph0" class="graph" transform="scale(1 1) rotate(0) translate(4 370)">
<polygon fill="white" stroke="transparent" points="-4,4 -4,-370 792,-370 792,4 -4,4"/>
<g id="clust1" class="cluster">
<title>cluster_repository</title>
<polygon fill="lightgrey" stroke="black" points="228,-196 228,-358 762,-358 762,-196 228,-196"/>
<text text-anchor="middle" x="495" y="-342.8" font-family="Times-Roman" font-size="14.00">repository</text>
</g>
<g id="clust3" class="cluster">
<title>cluster_component</title>
<polygon fill="lightgrey" stroke="black" points="274,-102 274,-177 506,-177 506,-102 274,-102"/>
<text text-anchor="middle" x="390" y="-161.8" font-family="Times-Roman" font-size="14.00">component</text>
</g>
<g id="clust4" class="cluster">
<title>cluster_container</title>
<polygon fill="lightgrey" stroke="black" points="8,-8 8,-83 780,-83 780,-8 8,-8"/>
<text text-anchor="middle" x="394" y="-67.8" font-family="Times-Roman" font-size="14.00">container</text>
</g>
<!-- podcast_player -->
<g id="node1" class="node">
<title>podcast_player</title>
<polygon fill="white" stroke="black" points="552,-327 432,-327 432,-291 552,-291 552,-327"/>
<text text-anchor="middle" x="492" y="-305.3" font-family="Times-Roman" font-size="14.00">podcast&#45;player</text>
</g>
<!-- podcast_player_api -->
<g id="node2" class="node">
<title>podcast_player_api</title>
<polygon fill="white" stroke="black" points="381.5,-240 236.5,-240 236.5,-204 381.5,-204 381.5,-240"/>
<text text-anchor="middle" x="309" y="-218.3" font-family="Times-Roman" font-size="14.00">podcast&#45;player&#45;api</text>
</g>
<!-- podcast_player&#45;&#45;podcast_player_api -->
<g id="edge1" class="edge">
<title>podcast_player&#45;&#45;podcast_player_api</title>
<path fill="none" stroke="black" d="M450.51,-290.82C437.47,-285.29 423.08,-279.02 410,-273 387.25,-262.52 362,-250.02 342.44,-240.14"/>
<text text-anchor="middle" x="449" y="-261.8" font-family="Times-Roman" font-size="14.00">submodule</text>
</g>
<!-- podcast_player_common -->
<g id="node3" class="node">
<title>podcast_player_common</title>
<polygon fill="white" stroke="black" points="584,-240 400,-240 400,-204 584,-204 584,-240"/>
<text text-anchor="middle" x="492" y="-218.3" font-family="Times-Roman" font-size="14.00">podcast&#45;player&#45;common</text>
</g>
<!-- podcast_player&#45;&#45;podcast_player_common -->
<g id="edge2" class="edge">
<title>podcast_player&#45;&#45;podcast_player_common</title>
<path fill="none" stroke="black" d="M492,-290.8C492,-276.05 492,-254.92 492,-240.18"/>
<text text-anchor="middle" x="531" y="-261.8" font-family="Times-Roman" font-size="14.00">submodule</text>
</g>
<!-- podcast_player_pwa -->
<g id="node4" class="node">
<title>podcast_player_pwa</title>
<polygon fill="white" stroke="black" points="754,-240 602,-240 602,-204 754,-204 754,-240"/>
<text text-anchor="middle" x="678" y="-218.3" font-family="Times-Roman" font-size="14.00">podcast&#45;player&#45;pwa</text>
</g>
<!-- podcast_player&#45;&#45;podcast_player_pwa -->
<g id="edge3" class="edge">
<title>podcast_player&#45;&#45;podcast_player_pwa</title>
<path fill="none" stroke="black" d="M533.03,-290.91C546.17,-285.32 560.75,-279.01 574,-273 597.35,-262.41 623.35,-249.91 643.52,-240.06"/>
<text text-anchor="middle" x="644" y="-261.8" font-family="Times-Roman" font-size="14.00">submodule</text>
</g>
<!-- api -->
<g id="node5" class="node">
<title>api</title>
<polygon fill="white" stroke="black" points="336,-146 282,-146 282,-142 278,-142 278,-138 282,-138 282,-118 278,-118 278,-114 282,-114 282,-110 336,-110 336,-146"/>
<polyline fill="none" stroke="black" points="282,-142 286,-142 286,-138 282,-138 "/>
<polyline fill="none" stroke="black" points="282,-118 286,-118 286,-114 282,-114 "/>
<text text-anchor="middle" x="309" y="-124.3" font-family="Times-Roman" font-size="14.00">api</text>
</g>
<!-- podcast_player_api&#45;&#45;api -->
<g id="edge4" class="edge">
<title>podcast_player_api&#45;&#45;api</title>
<path fill="none" stroke="black" d="M309,-203.7C309,-187.25 309,-162.65 309,-146.23"/>
</g>
<!-- updater -->
<g id="node6" class="node">
<title>updater</title>
<polygon fill="white" stroke="black" points="425.5,-146 354.5,-146 354.5,-142 350.5,-142 350.5,-138 354.5,-138 354.5,-118 350.5,-118 350.5,-114 354.5,-114 354.5,-110 425.5,-110 425.5,-146"/>
<polyline fill="none" stroke="black" points="354.5,-142 358.5,-142 358.5,-138 354.5,-138 "/>
<polyline fill="none" stroke="black" points="354.5,-118 358.5,-118 358.5,-114 354.5,-114 "/>
<text text-anchor="middle" x="390" y="-124.3" font-family="Times-Roman" font-size="14.00">updater</text>
</g>
<!-- podcast_player_api&#45;&#45;updater -->
<g id="edge5" class="edge">
<title>podcast_player_api&#45;&#45;updater</title>
<path fill="none" stroke="black" d="M324.24,-203.7C338.72,-187.25 360.37,-162.65 374.83,-146.23"/>
</g>
<!-- pwa -->
<g id="node7" class="node">
<title>pwa</title>
<polygon fill="white" stroke="black" points="498,-146 444,-146 444,-142 440,-142 440,-138 444,-138 444,-118 440,-118 440,-114 444,-114 444,-110 498,-110 498,-146"/>
<polyline fill="none" stroke="black" points="444,-142 448,-142 448,-138 444,-138 "/>
<polyline fill="none" stroke="black" points="444,-118 448,-118 448,-114 444,-114 "/>
<text text-anchor="middle" x="471" y="-124.3" font-family="Times-Roman" font-size="14.00">pwa</text>
</g>
<!-- podcast_player_pwa&#45;&#45;pwa -->
<g id="edge6" class="edge">
<title>podcast_player_pwa&#45;&#45;pwa</title>
<path fill="none" stroke="black" d="M639.55,-203.91C598.39,-185.62 534.16,-157.07 498.04,-141.02"/>
</g>
<!-- api_cont -->
<g id="node9" class="node">
<title>api_cont</title>
<polygon fill="white" stroke="black" points="242,-52 16,-52 16,-16 242,-16 242,-52"/>
<text text-anchor="middle" x="129" y="-30.3" font-family="Times-Roman" font-size="14.00">podcast&#45;player:&lt;version&gt;&#45;api</text>
</g>
<!-- api&#45;&#45;api_cont -->
<g id="edge8" class="edge">
<title>api&#45;&#45;api_cont</title>
<path fill="none" stroke="black" d="M281.66,-113.03C249.7,-96.69 196.8,-69.65 162.43,-52.08"/>
</g>
<!-- updater_cont -->
<g id="node8" class="node">
<title>updater_cont</title>
<polygon fill="white" stroke="black" points="520,-52 260,-52 260,-16 520,-16 520,-52"/>
<text text-anchor="middle" x="390" y="-30.3" font-family="Times-Roman" font-size="14.00">podcast&#45;player:&lt;version&gt;&#45;updater</text>
</g>
<!-- updater&#45;&#45;updater_cont -->
<g id="edge9" class="edge">
<title>updater&#45;&#45;updater_cont</title>
<path fill="none" stroke="black" d="M390,-109.7C390,-93.25 390,-68.65 390,-52.23"/>
</g>
<!-- pwa_cont -->
<g id="node10" class="node">
<title>pwa_cont</title>
<polygon fill="white" stroke="black" points="771.5,-52 538.5,-52 538.5,-16 771.5,-16 771.5,-52"/>
<text text-anchor="middle" x="655" y="-30.3" font-family="Times-Roman" font-size="14.00">podcast&#45;player:&lt;version&gt;&#45;pwa</text>
</g>
<!-- pwa&#45;&#45;pwa_cont -->
<g id="edge7" class="edge">
<title>pwa&#45;&#45;pwa_cont</title>
<path fill="none" stroke="black" d="M498.15,-113.43C530.74,-97.13 585.42,-69.79 620.84,-52.08"/>
</g>
</g>
</svg>
