<?xml version="1.0" encoding="UTF-8" standalone="no"?>
<!DOCTYPE svg PUBLIC "-//W3C//DTD SVG 1.1//EN"
 "http://www.w3.org/Graphics/SVG/1.1/DTD/svg11.dtd">
<!-- Generated by graphviz version 2.44.0 (0)
 -->
<!-- Pages: 1 -->
<svg width="601pt" height="374pt"
 viewBox="0.00 0.00 601.00 374.00" xmlns="http://www.w3.org/2000/svg" xmlns:xlink="http://www.w3.org/1999/xlink">
<g id="graph0" class="graph" transform="scale(1 1) rotate(0) translate(4 370)">
<polygon fill="white" stroke="transparent" points="-4,4 -4,-370 597,-370 597,4 -4,4"/>
<g id="clust1" class="cluster">
<title>cluster_repository</title>
<polygon fill="lightgrey" stroke="black" points="51,-196 51,-358 585,-358 585,-196 51,-196"/>
<text text-anchor="middle" x="318" y="-342.8" font-family="Times-Roman" font-size="14.00">repository</text>
</g>
<g id="clust3" class="cluster">
<title>cluster_component</title>
<polygon fill="lightgrey" stroke="black" points="204,-102 204,-177 346,-177 346,-102 204,-102"/>
<text text-anchor="middle" x="275" y="-161.8" font-family="Times-Roman" font-size="14.00">component</text>
</g>
<g id="clust4" class="cluster">
<title>cluster_container</title>
<polygon fill="lightgrey" stroke="black" points="8,-8 8,-83 502,-83 502,-8 8,-8"/>
<text text-anchor="middle" x="255" y="-67.8" font-family="Times-Roman" font-size="14.00">container</text>
</g>
<!-- podcast_player -->
<g id="node1" class="node">
<title>podcast_player</title>
<polygon fill="white" stroke="black" points="375,-327 255,-327 255,-291 375,-291 375,-327"/>
<text text-anchor="middle" x="315" y="-305.3" font-family="Times-Roman" font-size="14.00">podcast&#45;player</text>
</g>
<!-- podcast_player_api -->
<g id="node2" class="node">
<title>podcast_player_api</title>
<polygon fill="white" stroke="black" points="204.5,-240 59.5,-240 59.5,-204 204.5,-204 204.5,-240"/>
<text text-anchor="middle" x="132" y="-218.3" font-family="Times-Roman" font-size="14.00">podcast&#45;player&#45;api</text>
</g>
<!-- podcast_player&#45;&#45;podcast_player_api -->
<g id="edge1" class="edge">
<title>podcast_player&#45;&#45;podcast_player_api</title>
<path fill="none" stroke="black" d="M273.51,-290.82C260.47,-285.29 246.08,-279.02 233,-273 210.25,-262.52 185,-250.02 165.44,-240.14"/>
<text text-anchor="middle" x="272" y="-261.8" font-family="Times-Roman" font-size="14.00">submodule</text>
</g>
<!-- podcast_player_common -->
<g id="node3" class="node">
<title>podcast_player_common</title>
<polygon fill="white" stroke="black" points="407,-240 223,-240 223,-204 407,-204 407,-240"/>
<text text-anchor="middle" x="315" y="-218.3" font-family="Times-Roman" font-size="14.00">podcast&#45;player&#45;common</text>
</g>
<!-- podcast_player&#45;&#45;podcast_player_common -->
<g id="edge2" class="edge">
<title>podcast_player&#45;&#45;podcast_player_common</title>
<path fill="none" stroke="black" d="M315,-290.8C315,-276.05 315,-254.92 315,-240.18"/>
<text text-anchor="middle" x="354" y="-261.8" font-family="Times-Roman" font-size="14.00">submodule</text>
</g>
<!-- podcast_player_pwa -->
<g id="node4" class="node">
<title>podcast_player_pwa</title>
<polygon fill="white" stroke="black" points="577,-240 425,-240 425,-204 577,-204 577,-240"/>
<text text-anchor="middle" x="501" y="-218.3" font-family="Times-Roman" font-size="14.00">podcast&#45;player&#45;pwa</text>
</g>
<!-- podcast_player&#45;&#45;podcast_player_pwa -->
<g id="edge3" class="edge">
<title>podcast_player&#45;&#45;podcast_player_pwa</title>
<path fill="none" stroke="black" d="M356.03,-290.91C369.17,-285.32 383.75,-279.01 397,-273 420.35,-262.41 446.35,-249.91 466.52,-240.06"/>
<text text-anchor="middle" x="467" y="-261.8" font-family="Times-Roman" font-size="14.00">submodule</text>
</g>
<!-- api -->
<g id="node5" class="node">
<title>api</title>
<polygon fill="white" stroke="black" points="266,-146 212,-146 212,-142 208,-142 208,-138 212,-138 212,-118 208,-118 208,-114 212,-114 212,-110 266,-110 266,-146"/>
<polyline fill="none" stroke="black" points="212,-142 216,-142 216,-138 212,-138 "/>
<polyline fill="none" stroke="black" points="212,-118 216,-118 216,-114 212,-114 "/>
<text text-anchor="middle" x="239" y="-124.3" font-family="Times-Roman" font-size="14.00">api</text>
</g>
<!-- podcast_player_api&#45;&#45;api -->
<g id="edge4" class="edge">
<title>podcast_player_api&#45;&#45;api</title>
<path fill="none" stroke="black" d="M151.88,-203.91C170.97,-187.49 199.68,-162.8 218.87,-146.31"/>
</g>
<!-- pwa -->
<g id="node6" class="node">
<title>pwa</title>
<polygon fill="white" stroke="black" points="338,-146 284,-146 284,-142 280,-142 280,-138 284,-138 284,-118 280,-118 280,-114 284,-114 284,-110 338,-110 338,-146"/>
<polyline fill="none" stroke="black" points="284,-142 288,-142 288,-138 284,-138 "/>
<polyline fill="none" stroke="black" points="284,-118 288,-118 288,-114 284,-114 "/>
<text text-anchor="middle" x="311" y="-124.3" font-family="Times-Roman" font-size="14.00">pwa</text>
</g>
<!-- podcast_player_pwa&#45;&#45;pwa -->
<g id="edge5" class="edge">
<title>podcast_player_pwa&#45;&#45;pwa</title>
<path fill="none" stroke="black" d="M465.71,-203.91C428.79,-186.04 371.64,-158.36 338.12,-142.13"/>
</g>
<!-- api_cont -->
<g id="node7" class="node">
<title>api_cont</title>
<polygon fill="white" stroke="black" points="242,-52 16,-52 16,-16 242,-16 242,-52"/>
<text text-anchor="middle" x="129" y="-30.3" font-family="Times-Roman" font-size="14.00">podcast&#45;player:&lt;version&gt;&#45;api</text>
</g>
<!-- api&#45;&#45;api_cont -->
<g id="edge7" class="edge">
<title>api&#45;&#45;api_cont</title>
<path fill="none" stroke="black" d="M218.57,-109.91C198.93,-93.49 169.42,-68.8 149.7,-52.31"/>
</g>
<!-- pwa_cont -->
<g id="node8" class="node">
<title>pwa_cont</title>
<polygon fill="white" stroke="black" points="493.5,-52 260.5,-52 260.5,-16 493.5,-16 493.5,-52"/>
<text text-anchor="middle" x="377" y="-30.3" font-family="Times-Roman" font-size="14.00">podcast&#45;player:&lt;version&gt;&#45;pwa</text>
</g>
<!-- pwa&#45;&#45;pwa_cont -->
<g id="edge6" class="edge">
<title>pwa&#45;&#45;pwa_cont</title>
<path fill="none" stroke="black" d="M323.41,-109.7C335.21,-93.25 352.86,-68.65 364.64,-52.23"/>
</g>
</g>
</svg>
