<?xml version="1.0" encoding="UTF-8" standalone="no"?>
<!DOCTYPE svg PUBLIC "-//W3C//DTD SVG 1.1//EN"
 "http://www.w3.org/Graphics/SVG/1.1/DTD/svg11.dtd">
<!-- Generated by graphviz version 2.44.0 (0)
 -->
<!-- Title: components Pages: 1 -->
<svg width="454pt" height="332pt"
 viewBox="0.00 0.00 453.50 332.00" xmlns="http://www.w3.org/2000/svg" xmlns:xlink="http://www.w3.org/1999/xlink">
<g id="graph0" class="graph" transform="scale(1 1) rotate(0) translate(4 328)">
<title>components</title>
<polygon fill="white" stroke="transparent" points="-4,4 -4,-328 449.5,-328 449.5,4 -4,4"/>
<g id="clust1" class="cluster">
<title>cluster_cloud</title>
<polygon fill="none" stroke="black" points="65.5,-8 65.5,-316 303.5,-316 303.5,-8 65.5,-8"/>
<text text-anchor="middle" x="184.5" y="-300.8" font-family="Times-Roman" font-size="14.00">Cloud Server</text>
</g>
<!-- auth0 -->
<g id="node1" class="node">
<title>auth0</title>
<polygon fill="none" stroke="black" points="57,-285 0,-285 0,-249 57,-249 57,-285"/>
<text text-anchor="middle" x="28.5" y="-263.3" font-family="Times-Roman" font-size="14.00">auth0</text>
</g>
<!-- auth -->
<g id="node3" class="node">
<title>auth</title>
<polygon fill="none" stroke="black" points="183.5,-198 73.5,-198 73.5,-194 69.5,-194 69.5,-190 73.5,-190 73.5,-170 69.5,-170 69.5,-166 73.5,-166 73.5,-162 183.5,-162 183.5,-198"/>
<polyline fill="none" stroke="black" points="73.5,-194 77.5,-194 77.5,-190 73.5,-190 "/>
<polyline fill="none" stroke="black" points="73.5,-170 77.5,-170 77.5,-166 73.5,-166 "/>
<text text-anchor="middle" x="128.5" y="-176.3" font-family="Times-Roman" font-size="14.00">authenticator</text>
</g>
<!-- auth0&#45;&#45;auth -->
<g id="edge6" class="edge">
<title>auth0&#45;&#45;auth</title>
<path fill="none" stroke="black" d="M48.74,-248.8C66.09,-234.05 90.95,-212.92 108.29,-198.18"/>
</g>
<!-- proxy -->
<g id="node2" class="node">
<title>proxy</title>
<polygon fill="none" stroke="black" points="210.5,-285 98.5,-285 98.5,-281 94.5,-281 94.5,-277 98.5,-277 98.5,-257 94.5,-257 94.5,-253 98.5,-253 98.5,-249 210.5,-249 210.5,-285"/>
<polyline fill="none" stroke="black" points="98.5,-281 102.5,-281 102.5,-277 98.5,-277 "/>
<polyline fill="none" stroke="black" points="98.5,-257 102.5,-257 102.5,-253 98.5,-253 "/>
<text text-anchor="middle" x="154.5" y="-263.3" font-family="Times-Roman" font-size="14.00">reverse proxy</text>
</g>
<!-- proxy&#45;&#45;auth -->
<g id="edge1" class="edge">
<title>proxy&#45;&#45;auth</title>
<path fill="none" stroke="black" d="M149.24,-248.8C144.73,-234.05 138.26,-212.92 133.75,-198.18"/>
<text text-anchor="middle" x="155.5" y="-219.8" font-family="Times-Roman" font-size="14.00">/api</text>
</g>
<!-- pwa_server -->
<g id="node4" class="node">
<title>pwa_server</title>
<polygon fill="none" stroke="black" points="295.5,-198 201.5,-198 201.5,-194 197.5,-194 197.5,-190 201.5,-190 201.5,-170 197.5,-170 197.5,-166 201.5,-166 201.5,-162 295.5,-162 295.5,-198"/>
<polyline fill="none" stroke="black" points="201.5,-194 205.5,-194 205.5,-190 201.5,-190 "/>
<polyline fill="none" stroke="black" points="201.5,-170 205.5,-170 205.5,-166 201.5,-166 "/>
<text text-anchor="middle" x="248.5" y="-176.3" font-family="Times-Roman" font-size="14.00">pwa server</text>
</g>
<!-- proxy&#45;&#45;pwa_server -->
<g id="edge4" class="edge">
<title>proxy&#45;&#45;pwa_server</title>
<path fill="none" stroke="black" d="M173.52,-248.8C189.83,-234.05 213.21,-212.92 229.51,-198.18"/>
<text text-anchor="middle" x="209" y="-219.8" font-family="Times-Roman" font-size="14.00">/</text>
</g>
<!-- api -->
<g id="node6" class="node">
<title>api</title>
<polygon fill="lightgrey" stroke="black" points="179.5,-125 125.5,-125 125.5,-121 121.5,-121 121.5,-117 125.5,-117 125.5,-97 121.5,-97 121.5,-93 125.5,-93 125.5,-89 179.5,-89 179.5,-125"/>
<polyline fill="none" stroke="black" points="125.5,-121 129.5,-121 129.5,-117 125.5,-117 "/>
<polyline fill="none" stroke="black" points="125.5,-97 129.5,-97 129.5,-93 125.5,-93 "/>
<text text-anchor="middle" x="152.5" y="-103.3" font-family="Times-Roman" font-size="14.00">api</text>
</g>
<!-- auth&#45;&#45;api -->
<g id="edge2" class="edge">
<title>auth&#45;&#45;api</title>
<path fill="none" stroke="black" d="M134.31,-161.81C138.08,-150.65 142.98,-136.16 146.74,-125.03"/>
</g>
<!-- pwa -->
<g id="node5" class="node">
<title>pwa</title>
<polygon fill="lightgrey" stroke="black" points="275.5,-125 221.5,-125 221.5,-121 217.5,-121 217.5,-117 221.5,-117 221.5,-97 217.5,-97 217.5,-93 221.5,-93 221.5,-89 275.5,-89 275.5,-125"/>
<polyline fill="none" stroke="black" points="221.5,-121 225.5,-121 225.5,-117 221.5,-117 "/>
<polyline fill="none" stroke="black" points="221.5,-97 225.5,-97 225.5,-93 221.5,-93 "/>
<text text-anchor="middle" x="248.5" y="-103.3" font-family="Times-Roman" font-size="14.00">pwa</text>
</g>
<!-- pwa_server&#45;&#45;pwa -->
<g id="edge5" class="edge">
<title>pwa_server&#45;&#45;pwa</title>
<path fill="none" stroke="black" d="M248.5,-161.81C248.5,-150.65 248.5,-136.16 248.5,-125.03"/>
</g>
<!-- postgres -->
<g id="node7" class="node">
<title>postgres</title>
<path fill="none" stroke="black" d="M191,-48.73C191,-50.53 173.74,-52 152.5,-52 131.26,-52 114,-50.53 114,-48.73 114,-48.73 114,-19.27 114,-19.27 114,-17.47 131.26,-16 152.5,-16 173.74,-16 191,-17.47 191,-19.27 191,-19.27 191,-48.73 191,-48.73"/>
<path fill="none" stroke="black" d="M191,-48.73C191,-46.92 173.74,-45.45 152.5,-45.45 131.26,-45.45 114,-46.92 114,-48.73"/>
<text text-anchor="middle" x="152.5" y="-30.3" font-family="Times-Roman" font-size="14.00">postgres</text>
</g>
<!-- api&#45;&#45;postgres -->
<g id="edge3" class="edge">
<title>api&#45;&#45;postgres</title>
<path fill="none" stroke="black" d="M152.5,-88.81C152.5,-77.65 152.5,-63.16 152.5,-52.03"/>
</g>
<!-- provider -->
<g id="node8" class="node">
<title>provider</title>
<polygon fill="none" stroke="black" points="445.5,-52 311.5,-52 311.5,-16 445.5,-16 445.5,-52"/>
<text text-anchor="middle" x="378.5" y="-30.3" font-family="Times-Roman" font-size="14.00">podcast provider</text>
</g>
<!-- api&#45;&#45;provider -->
<g id="edge7" class="edge">
<title>api&#45;&#45;provider</title>
<path fill="none" stroke="black" d="M179.76,-97.44C215.33,-86.26 278.41,-66.45 323.97,-52.13"/>
</g>
</g>
</svg>
