<?xml version="1.0" encoding="UTF-8" standalone="no"?>
<!DOCTYPE svg PUBLIC "-//W3C//DTD SVG 1.1//EN"
 "http://www.w3.org/Graphics/SVG/1.1/DTD/svg11.dtd">
<!-- Generated by graphviz version 2.50.0 (0)
 -->
<!-- Title: components Pages: 1 -->
<svg width="331pt" height="259pt"
 viewBox="0.00 0.00 330.50 259.00" xmlns="http://www.w3.org/2000/svg" xmlns:xlink="http://www.w3.org/1999/xlink">
<g id="graph0" class="graph" transform="scale(1 1) rotate(0) translate(4 255)">
<title>components</title>
<polygon fill="white" stroke="transparent" points="-4,4 -4,-255 326.5,-255 326.5,4 -4,4"/>
<g id="clust1" class="cluster">
<title>cluster_cloud</title>
<polygon fill="none" stroke="black" points="8,-8 8,-243 176,-243 176,-8 8,-8"/>
<text text-anchor="middle" x="92" y="-227.8" font-family="Times,serif" font-size="14.00">Cloud Server</text>
</g>
<!-- proxy -->
<g id="node1" class="node">
<title>proxy</title>
<polygon fill="none" stroke="black" points="145,-212 29,-212 29,-208 25,-208 25,-204 29,-204 29,-184 25,-184 25,-180 29,-180 29,-176 145,-176 145,-212"/>
<polyline fill="none" stroke="black" points="29,-208 33,-208 33,-204 29,-204 "/>
<polyline fill="none" stroke="black" points="29,-184 33,-184 33,-180 29,-180 "/>
<text text-anchor="middle" x="87" y="-190.3" font-family="Times,serif" font-size="14.00">reverse proxy</text>
</g>
<!-- pwa_server -->
<g id="node2" class="node">
<title>pwa_server</title>
<polygon fill="none" stroke="black" points="78,-125 22,-125 22,-121 18,-121 18,-117 22,-117 22,-97 18,-97 18,-93 22,-93 22,-89 78,-89 78,-125"/>
<polyline fill="none" stroke="black" points="22,-121 26,-121 26,-117 22,-117 "/>
<polyline fill="none" stroke="black" points="22,-97 26,-97 26,-93 22,-93 "/>
<text text-anchor="middle" x="50" y="-103.3" font-family="Times,serif" font-size="14.00">nginx</text>
</g>
<!-- proxy&#45;&#45;pwa_server -->
<g id="edge3" class="edge">
<title>proxy&#45;&#45;pwa_server</title>
<path fill="none" stroke="black" d="M79.51,-175.8C73.09,-161.05 63.89,-139.92 57.48,-125.18"/>
<text text-anchor="middle" x="72.5" y="-146.8" font-family="Times,serif" font-size="14.00">/</text>
</g>
<!-- api -->
<g id="node4" class="node">
<title>api</title>
<polygon fill="lightgrey" stroke="black" points="155,-125 101,-125 101,-121 97,-121 97,-117 101,-117 101,-97 97,-97 97,-93 101,-93 101,-89 155,-89 155,-125"/>
<polyline fill="none" stroke="black" points="101,-121 105,-121 105,-117 101,-117 "/>
<polyline fill="none" stroke="black" points="101,-97 105,-97 105,-93 101,-93 "/>
<text text-anchor="middle" x="128" y="-103.3" font-family="Times,serif" font-size="14.00">api</text>
</g>
<!-- proxy&#45;&#45;api -->
<g id="edge1" class="edge">
<title>proxy&#45;&#45;api</title>
<path fill="none" stroke="black" d="M95.3,-175.8C102.41,-161.05 112.61,-139.92 119.72,-125.18"/>
<text text-anchor="middle" x="122.5" y="-146.8" font-family="Times,serif" font-size="14.00">/api</text>
</g>
<!-- pwa -->
<g id="node3" class="node">
<title>pwa</title>
<polygon fill="lightgrey" stroke="black" points="70,-52 16,-52 16,-48 12,-48 12,-44 16,-44 16,-24 12,-24 12,-20 16,-20 16,-16 70,-16 70,-52"/>
<polyline fill="none" stroke="black" points="16,-48 20,-48 20,-44 16,-44 "/>
<polyline fill="none" stroke="black" points="16,-24 20,-24 20,-20 16,-20 "/>
<text text-anchor="middle" x="43" y="-30.3" font-family="Times,serif" font-size="14.00">pwa</text>
</g>
<!-- pwa_server&#45;&#45;pwa -->
<g id="edge4" class="edge">
<title>pwa_server&#45;&#45;pwa</title>
<path fill="none" stroke="black" d="M48.31,-88.81C47.2,-77.65 45.78,-63.16 44.68,-52.03"/>
</g>
<!-- postgres -->
<g id="node5" class="node">
<title>postgres</title>
<path fill="none" stroke="black" d="M167.5,-48.73C167.5,-50.53 149.8,-52 128,-52 106.2,-52 88.5,-50.53 88.5,-48.73 88.5,-48.73 88.5,-19.27 88.5,-19.27 88.5,-17.47 106.2,-16 128,-16 149.8,-16 167.5,-17.47 167.5,-19.27 167.5,-19.27 167.5,-48.73 167.5,-48.73"/>
<path fill="none" stroke="black" d="M167.5,-48.73C167.5,-46.92 149.8,-45.45 128,-45.45 106.2,-45.45 88.5,-46.92 88.5,-48.73"/>
<text text-anchor="middle" x="128" y="-30.3" font-family="Times,serif" font-size="14.00">postgres</text>
</g>
<!-- api&#45;&#45;postgres -->
<g id="edge2" class="edge">
<title>api&#45;&#45;postgres</title>
<path fill="none" stroke="black" d="M128,-88.81C128,-77.65 128,-63.16 128,-52.03"/>
</g>
<!-- provider -->
<g id="node6" class="node">
<title>provider</title>
<polygon fill="none" stroke="black" points="322.5,-52 185.5,-52 185.5,-16 322.5,-16 322.5,-52"/>
<text text-anchor="middle" x="254" y="-30.3" font-family="Times,serif" font-size="14.00">podcast provider</text>
</g>
<!-- api&#45;&#45;provider -->
<g id="edge5" class="edge">
<title>api&#45;&#45;provider</title>
<path fill="none" stroke="black" d="M155.03,-90.77C175.13,-79.44 202.58,-63.97 223.48,-52.2"/>
</g>
</g>
</svg>
